# xmcd CD database file
#
# Track frame offsets:
#	150
#	17395
#	30872
#	44708
#	61658
#	75601
#	91121
#	106073
#	120537
#	136813
#	155504
#	171296
#	185897
#	199226
#	215135
#
# Disc length: 3121 seconds
#
# Revision: 0
# Processed by: cddbd v1.5.2PL0 Copyright (c) Steve Scherf et al.
# Submitted via: CDex 1.70beta2
#
DISCID=c10c2f0f
DTITLE=Höhner - Höhner 4.0
DYEAR=2012
DGENRE=Schlager
TTITLE0=Quo Vadis
TTITLE1=Da hammer widder wat
TTITLE2=6 bis 8 Stunden Schlaf
TTITLE3=Manchmal du musst lachen
TTITLE4=IstamPool
TTITLE5=Das allererste Mal
TTITLE6=Endlich wieder bei Dir
TTITLE7=Frauenversteher
TTITLE8=Schade Schokolade
TTITLE9=Droum vum Jlöck
TTITLE10=Alles klar
TTITLE11=Carneval
TTITLE12=Hemmungslos und unbeschwert
TTITLE13=Du bist die Schönste
TTITLE14=In der tiefsten Nacht
EXTD=YEAR: 2012
EXTT0=
EXTT1=
EXTT2=
EXTT3=
EXTT4=
EXTT5=
EXTT6=
EXTT7=
EXTT8=
EXTT9=
EXTT10=
EXTT11=
EXTT12=
EXTT13=
EXTT14=
PLAYORDER=
